2000 0 1 0           
12 Elysium, Inc 14 ACIS 20.0.3 NT 24 Mon Aug 31 22:50:40 2020 
1 9.9999999999999995e-007 1e-010 
body $1 -1 -1 $-1 $2 $-1 $-1 F #
string_attrib-name_attrib-gen-attrib $-1 -1 $-1 $-1 $0 2 1 0 1 1 1 1 1 1 1 1 1 1 1 0 1 1 1 @13 ELY_PART_NAME @31 Job_uni_2_Analysis_uni_2_Phase2 #
lump $-1 -1 -1 $-1 $-1 $3 $0 F #
shell $-1 -1 -1 $-1 $-1 $-1 $4 $-1 $2 F #
face $-1 -1 -1 $-1 $5 $6 $3 $-1 $7 forward single F F #
face $-1 -1 -1 $-1 $8 $9 $3 $-1 $10 forward single F F #
loop $-1 -1 -1 $-1 $-1 $11 $4 F unknown #
plane-surface $-1 -1 -1 $-1 1450.0190940428079 957.07814973408301 1551.279744388391 0 1 0 0 0 1 forward_v I I I I #
face $-1 -1 -1 $-1 $-1 $12 $3 $-1 $13 forward single F F #
loop $-1 -1 -1 $-1 $-1 $14 $5 F unknown #
plane-surface $-1 -1 -1 $-1 1450.0190940428081 42.921850265916731 -94.201594654307939 -6.1533569201532516e-017 -1 -5.8294960296188675e-017 0 5.8294960296188675e-017 -1 forward_v I I I I #
coedge $-1 -1 -1 $-1 $11 $11 $15 $16 reversed $6 $-1 #
loop $-1 -1 -1 $-1 $-1 $17 $8 F unknown #
cone-surface $-1 -1 -1 $-1 500.00000000000028 42.92185026591676 500.00000000000006 2.4872516393040503e-016 1 6.2181290982601257e-017 -26.311258933922115 6.5442721915550544e-015 -456.32023034010336 1 I I 0 1 457.07814973408307 forward I I I I #
coedge $-1 -1 -1 $-1 $14 $14 $18 $19 reversed $9 $-1 #
coedge $-1 -1 -1 $-1 $20 $17 $11 $16 forward $12 $-1 #
edge $-1 -1 -1 $-1 $21 0 $21 6.2831853071795862 $11 $22 forward @7 unknown F #
coedge $-1 -1 -1 $-1 $15 $18 $20 $23 forward $12 $-1 #
coedge $-1 -1 -1 $-1 $17 $20 $14 $19 forward $12 $-1 #
edge $-1 -1 -1 $-1 $24 0 $24 6.2831853071795862 $14 $25 forward @7 unknown F #
coedge $-1 -1 -1 $-1 $18 $15 $17 $23 reversed $12 $-1 #
vertex $-1 -1 -1 $-1 $16 $26 #
ellipse-curve $-1 -1 -1 $-1 500.00000000000011 957.07814973408301 500 2.4872516393040503e-016 -1 -6.186420717220687e-032 -1.1368683772161603e-013 0 -457.07814973408301 1 I I #
edge $-1 -1 -1 $-1 $24 -5.684341886080804e-014 $21 914.15629946816614 $17 $27 forward @7 unknown F #
vertex $-1 -1 -1 $-1 $19 $28 #
ellipse-curve $-1 -1 -1 $-1 500 42.921850265916753 500 7.7726613728251587e-017 1 6.2181290982601269e-017 0 2.8421709430404007e-014 -457.07814973408301 1 I I #
point $-1 -1 -1 $-1 500 957.07814973408301 42.921850265916994 #
straight-curve $-1 -1 -1 $-1 500.00000000000011 42.921850265916838 42.921850265916987 1.8654387294780381e-016 1 1.2436258196520254e-016 I I #
point $-1 -1 -1 $-1 500 42.921850265916781 42.921850265916994 #
End-of-ACIS-data 