**ABCDEFGHIJKLMNOPQRSTUVWXYZabcdefghijklmnopqrstuvwxyz**************************
**PARASOLID !"#$%&'()*+,-./:;<=>?@[\]^_`{|}~0123456789**************************
**PART1;
MC=unknown;
MC_MODEL=unknown;
MC_ID=unknown;
OS=unknown;
OS_RELEASE=unknown;
FRU=sdl_parasolid_customer_support;
APPL=parasolid_acceptance_tests;
SITE=unknown;
USER=unknown;
FORMAT=text;
GUISE=transmit;
KEY=E:\Analyses\FSI\ML_data\working\test\2\digimat_uni_3\Job_uni_3_Analysis_uni_3_Phase1_uncut;
FILE=E:\Analyses\FSI\ML_data\working\test\2\digimat_uni_3\Job_uni_3_Analysis_uni_3_Phase1_uncut.xmt_txt;
DATE=unknown;
**PART2;
SCH=SCH_2700161_26105;
USFLD_SIZE=1;
**PART3;
**END_OF_HEADER*****************************************************************
T51 : TRANSMIT FILE created by modeller version 270016123 SCH_2700161_26105_1300
6196 1 12 30 CCCCCCCCCCCCCDI5 owner1040 0 CCCCCCCCCA13 boundary_mesh1006 0 A16 i
ndex_map_offset0 0 1 dA9 index_map82 0 A17 node_id_index_map82 0 A20 schema_embe
dding_map82 0 A5 child12 0 A14 lowest_node_id0 0 1 dZ1 63 2 3 0 0 0 0 1e3 1e-8 0
 4 5 1 0 1 1 6 7 8 9 10 11 12 0 0 0 0 0 0 0 0 81 255 5 2 63 13 1 0 0 0 0 14 0 15
 0 0 0 70 11 CI9 list_type0 0 1 uI10 notransmit0 0 1 lCCCDCCDI12 finger_index0 0
 1 dI12 finger_block1012 0 CZ3 0 4 T1 0 0 1 20 1 16 16 0 13 255 6 3 0 1 0 17 0 0
 18 0 0 50 255 7 54 0 17 19 0 0 +.5 .5 1 0 0 1 1 0 0 0 30 255 8 62 0 11 20 0 0 +
.5 0 1 -1 0 0 0 29 255 9 58 0 12 21 0 0 0 1 0 19 8 CCCCCCCA5 owner12 0 Z10 1 0 1
 18 0 22 V0 0 16 255 11 34 0 ?23 0 24 8 0 0 1 0 18 255 12 23 0 23 0 25 9 ?1 0 17
 255 23 0 26 27 28 12 29 11 0 30 +0 18 25 21 0 31 12 32 21 ?1 0 17 31 0 33 34 35
 25 30 24 0 36 +0 18 32 19 0 37 25 38 39 ?1 0 29 21 57 0 25 39 9 0 1 1 0 29 39 5
6 0 32 40 21 1 1 1 0 29 40 55 0 38 41 39 1 0 1 0 18 38 17 0 29 32 42 40 ?1 0 29
 41 41 0 43 44 40 0 0 0 0 18 43 11 0 27 45 46 41 ?1 0 29 44 40 0 45 47 41 0 1 0
 0 18 45 13 0 34 42 43 44 ?1 0 29 47 39 0 42 48 44 1 1 0 0 18 42 15 0 49 38 45 4
7 ?1 0 29 48 38 0 46 0 47 1 0 0 0 18 46 10 0 50 43 0 48 ?1 0 17 50 0 51 52 53 46
 28 54 0 55 -0 15 255 51 7 0 52 56 0 0 17 52 0 51 57 50 42 58 59 0 0 +0 17 53 0
 51 50 57 38 60 61 0 28 +0 17 28 0 26 23 55 38 50 54 0 0 +0 16 54 18 0 ?28 62 59
 63 0 0 1 0 17 55 0 26 28 27 46 64 65 0 58 +0 15 26 32 0 28 66 0 0 17 27 0 26 55
 23 43 35 67 0 68 -0 17 64 0 69 70 58 43 55 65 0 0 -0 16 65 12 0 ?55 71 0 72 0 0
 1 0 17 58 0 69 64 73 46 52 59 0 0 -0 15 69 8 0 58 74 0 0 17 73 0 69 58 70 42 75
 76 0 52 -0 16 59 6 0 ?52 54 76 77 0 0 1 0 16 76 16 0 ?75 59 71 78 0 0 1 0 30 77
 43 0 59 72 78 0 +1 .5 0 0 1 0 0 30 72 42 0 65 0 77 0 +.5 0 0 1 0 0 0 30 78 44 0
 76 77 79 0 +.5 1 0 -1 0 0 0 30 79 45 0 71 78 63 0 +0 .5 0 0 -1 0 0 16 71 14 0 ?
68 76 65 79 0 0 1 0 30 63 50 0 54 79 80 0 +1 0 0 0 0 1 0 30 80 51 0 62 63 81 0 +
1 1 0 0 0 1 0 16 62 20 0 ?57 82 54 80 0 0 1 0 30 81 52 0 82 80 83 0 +0 1 0 0 0 1
 0 16 82 22 0 ?84 67 62 81 0 0 1 0 30 83 53 0 67 81 85 0 +0 0 0 0 0 1 0 16 67 24
 0 ?35 61 82 83 0 0 1 0 30 85 59 0 61 83 86 0 +1 .5 1 0 -1 0 0 16 61 25 0 ?53 87
 67 85 0 0 1 0 30 86 60 0 87 85 20 0 +.5 1 1 1 0 0 0 16 87 28 0 ?37 24 61 86 0 0
 1 0 30 20 61 0 24 86 8 0 +0 .5 1 0 1 0 0 16 24 31 0 ?31 11 87 20 0 0 1 0 17 37
 0 88 49 84 32 36 87 0 60 +0 15 88 26 0 84 89 0 0 17 49 0 88 75 37 42 57 62 0 73
 -0 17 84 0 88 37 75 25 34 82 0 0 +0 17 36 0 90 30 60 25 37 87 0 84 -0 17 60 0 9
0 36 29 32 53 61 0 57 -0 15 90 35 0 29 17 0 0 17 29 0 90 60 30 38 23 11 0 53 -0
 17 57 0 51 53 52 32 49 62 0 0 +0 17 30 0 90 29 36 12 31 24 0 35 -0 17 35 0 33 3
1 68 12 27 67 0 0 +0 15 33 29 0 35 91 0 0 17 68 0 33 35 34 43 70 71 0 64 +0 17 3
4 0 33 68 31 45 84 82 0 75 -0 17 70 0 69 73 64 45 68 71 0 0 -0 17 75 0 88 84 49
 45 73 76 0 70 +0 14 255 91 30 0 ?89 66 33 6 92 +0 0 89 66 22 0 14 89 27 0 ?74 9
1 88 6 93 +0 0 74 91 22 0 14 66 33 0 ?91 17 26 6 19 +0 0 91 17 22 0 50 92 48 0 9
1 93 19 0 +0 .5 0 -1 0 0 0 0 1 0 13 22 4 0 0 0 0 0 0 10 17 0 14 17 36 0 ?66 0 90
 6 7 +0 0 66 0 22 0 50 93 47 0 89 94 92 0 +.5 1 0 0 1 0 0 0 1 0 50 19 49 0 66 92
 7 0 +.5 0 0 0 -1 0 0 0 -1 0 50 94 46 0 56 95 93 0 +1 .5 0 1 0 0 0 0 -1 0 14 56
 2 0 ?0 74 51 6 94 +0 0 0 74 22 0 50 95 37 0 74 0 94 0 +.5 .5 0 0 0 -1 -1 0 0 0
 14 74 9 0 ?56 89 69 6 95 +0 0 56 89 22 0 19 18 5 0 1 0 10 6 S0 0 74 4 CI16 inde
x_map_offset0 0 1 dCCZ20 16 1 0 0 2 0 0 0 0 0 0 0 0 0 0 0 0 0 0 0 0 0 0 0 0 80 2
55 5 13 96 97 9000 0 0 0 0 3 5 0 0 98 FFTFFFFFFFFFFF3 3 1 1 2 0 84 255 6 14 Phas
e10 82 255 1 15 -1 0 79 255 38 97 e-X Digimat-FE geometry identification0 99 255
 5 98 99 100 101 102 103 0 84 22 99 e-XDigimatFE_PhaseName0 84 22 100 e-XDigimat
FE_LayerName0 84 24 101 e-XDigimatFE_InclusionId0 84 27 102 e-XDigimatFE_SubIncl
usionId0 84 30 103 e-XDigimatFE_InclusionPosition0 1 0 
