**ABCDEFGHIJKLMNOPQRSTUVWXYZabcdefghijklmnopqrstuvwxyz**************************
**PARASOLID !"#$%&'()*+,-./:;<=>?@[\]^_`{|}~0123456789**************************
**PART1;
MC=unknown;
MC_MODEL=unknown;
MC_ID=unknown;
OS=unknown;
OS_RELEASE=unknown;
FRU=sdl_parasolid_customer_support;
APPL=parasolid_acceptance_tests;
SITE=unknown;
USER=unknown;
FORMAT=text;
GUISE=transmit;
KEY=E:\Analyses\FSI\ML_data\working\test\2\digimat_sh_23\Job_sh_23_Analysis_sh_23_Phase1;
FILE=E:\Analyses\FSI\ML_data\working\test\2\digimat_sh_23\Job_sh_23_Analysis_sh_23_Phase1.xmt_txt;
DATE=unknown;
**PART2;
SCH=SCH_2700161_26105;
USFLD_SIZE=1;
**PART3;
**END_OF_HEADER*****************************************************************
T51 : TRANSMIT FILE created by modeller version 270016123 SCH_2700161_26105_1300
6196 1 12 30 CCCCCCCCCCCCCDI5 owner1040 0 CCCCCCCCCA13 boundary_mesh1006 0 A16 i
ndex_map_offset0 0 1 dA9 index_map82 0 A17 node_id_index_map82 0 A20 schema_embe
dding_map82 0 A5 child12 0 A14 lowest_node_id0 0 1 dZ1 82 2 3 0 0 0 0 1e3 1e-8 0
 4 5 1 0 1 1 6 7 8 9 10 11 12 0 0 0 0 0 0 0 0 81 255 5 2 82 13 1 0 0 0 0 14 0 15
 0 0 0 70 11 CI9 list_type0 0 1 uI10 notransmit0 0 1 lCCCDCCDI12 finger_index0 0
 1 dI12 finger_block1012 0 CZ3 0 4 T1 0 0 1 20 1 16 16 0 13 255 6 3 0 1 17 18 0
 0 19 0 0 50 255 7 54 0 18 20 0 0 +.5 .5 1 0 0 1 1 0 0 0 30 255 8 62 0 11 21 0 0
 +.5 0 1 -1 0 0 0 29 255 9 58 0 12 22 0 0 0 1 0 19 8 CCCCCCCA5 owner12 0 Z10 1 0
 1 19 0 23 V0 0 16 255 11 34 0 ?24 0 25 8 0 0 1 0 18 255 12 23 0 24 0 26 9 ?1 0
 17 255 24 0 27 28 29 12 30 11 0 31 +0 18 26 21 0 32 12 33 22 ?1 0 17 32 0 34 35
 36 26 31 25 0 37 +0 18 33 19 0 38 26 39 40 ?1 0 29 22 57 0 26 40 9 0 1 1 0 29 4
0 56 0 33 41 22 1 1 1 0 29 41 55 0 39 42 40 1 0 1 0 18 39 17 0 30 33 43 41 ?1 0
 29 42 41 0 44 45 41 0 0 0 0 18 44 11 0 28 46 47 42 ?1 0 29 45 40 0 46 48 42 0 1
 0 0 18 46 13 0 35 43 44 45 ?1 0 29 48 39 0 43 49 45 1 1 0 0 18 43 15 0 50 39 46
 48 ?1 0 29 49 38 0 47 0 48 1 0 0 0 18 47 10 0 51 44 0 49 ?1 0 17 51 0 52 53 54
 47 29 55 0 56 -0 15 255 52 7 0 53 57 0 0 17 53 0 52 58 51 43 59 60 0 0 +0 17 54
 0 52 51 58 39 61 62 0 29 +0 17 29 0 27 24 56 39 51 55 0 0 +0 16 55 18 0 ?29 63
 60 64 0 0 1 0 17 56 0 27 29 28 47 65 66 0 59 +0 15 27 32 0 29 67 0 0 17 28 0 27
 56 24 44 36 68 0 69 -0 17 65 0 70 71 59 44 56 66 0 0 -0 16 66 12 0 ?56 72 73 74
 0 0 1 0 17 59 0 70 65 75 47 53 60 0 0 -0 15 70 8 0 59 76 0 0 17 75 0 70 59 71 4
3 77 78 0 53 -0 16 60 6 0 ?53 55 78 79 0 0 1 0 16 78 16 0 ?77 60 72 80 0 0 1 0 3
0 79 43 0 60 74 80 0 +1 .5 0 0 1 0 0 30 74 42 0 66 81 79 0 +.5 0 0 1 0 0 0 30 80
 44 0 78 79 82 0 +.5 1 0 -1 0 0 0 30 82 45 0 72 80 64 0 +0 .5 0 0 -1 0 0 16 72 1
4 0 ?69 78 66 82 0 0 1 0 30 64 50 0 55 82 83 0 +1 0 0 0 0 1 0 30 83 51 0 63 64 8
4 0 +1 1 0 0 0 1 0 16 63 20 0 ?58 85 55 83 0 0 1 0 30 84 52 0 85 83 86 0 +0 1 0
 0 0 1 0 16 85 22 0 ?87 68 63 84 0 0 1 0 30 86 53 0 68 84 88 0 +0 0 0 0 0 1 0 16
 68 24 0 ?36 62 85 86 0 0 1 0 30 88 59 0 62 86 89 0 +1 .5 1 0 -1 0 0 16 62 25 0
 ?54 90 68 88 0 0 1 0 30 89 60 0 90 88 21 0 +.5 1 1 1 0 0 0 16 90 28 0 ?38 25 62
 89 0 0 1 0 30 21 61 0 25 89 8 0 +0 .5 1 0 1 0 0 16 25 31 0 ?32 11 90 21 0 0 1 0
 17 38 0 91 50 87 33 37 90 0 61 +0 15 91 26 0 87 92 0 0 17 50 0 91 77 38 43 58 6
3 0 75 -0 17 87 0 91 38 77 26 35 85 0 0 +0 17 37 0 93 31 61 26 38 90 0 87 -0 17
 61 0 93 37 30 33 54 62 0 58 -0 15 93 35 0 30 18 0 0 17 30 0 93 61 31 39 24 11 0
 54 -0 17 58 0 52 54 53 33 50 63 0 0 +0 17 31 0 93 30 37 12 32 25 0 36 -0 17 36
 0 34 32 69 12 28 68 0 0 +0 15 34 29 0 36 94 0 0 17 69 0 34 36 35 44 71 72 0 65
 +0 17 35 0 34 69 32 46 87 85 0 77 -0 17 71 0 70 75 65 46 69 72 0 0 -0 17 77 0 9
1 87 50 46 75 78 0 71 +0 14 255 94 30 0 ?92 67 34 6 95 +0 0 92 67 23 0 14 92 27
 0 ?76 94 91 6 96 +0 0 76 94 23 0 14 67 33 0 ?94 18 27 6 20 +0 0 94 18 23 0 50 9
5 48 0 94 96 20 0 +0 .5 0 -1 0 0 0 0 1 0 13 23 4 0 0 0 0 0 0 10 18 0 14 18 36 0
 ?67 0 93 6 7 +0 0 67 0 23 0 50 96 47 0 92 97 95 0 +.5 1 0 0 1 0 0 0 1 0 50 20 4
9 0 67 95 7 0 +.5 0 0 0 -1 0 0 0 -1 0 50 97 46 0 57 98 96 0 +1 .5 0 1 0 0 0 0 -1
 0 14 57 2 0 ?0 76 52 6 97 +0 0 0 76 23 0 50 98 37 0 76 99 97 0 +.5 .5 0 0 0 -1
 -1 0 0 0 14 76 9 0 ?57 92 70 6 98 +0 0 57 92 23 0 51 255 99 77 0 100 101 98 0 +
.5 .04292185026591675 .5 612323399573677e-31 1 612323399573677e-31 .457078149734
083 3749399456654645e-48 612323399573677e-31 -1 0 14 100 71 0 ?0 102 103 17 99 -
0 0 0 102 104 0 50 101 78 0 105 106 99 0 +.5 .957078149734083 .5 612323399573677
e-31 1 612323399573677e-31 3749399456654645e-48 612323399573677e-31 -1 0 14 105
 67 0 ?102 0 107 17 101 -0 0 102 0 104 0 50 106 79 0 102 0 101 0 +.5 .0429218502
6591675 .5 -612323399573677e-31 -1 -612323399573677e-31 -3749399456654645e-48 -6
12323399573677e-31 1 0 14 102 69 0 ?100 105 108 17 106 -0 0 100 105 104 0 15 108
 70 0 109 102 0 0 13 17 63 0 1 0 105 0 0 19 0 0 13 104 75 0 0 0 0 0 0 110 105 0
 19 110 74 0 1 0 19 104 V0 0 19 19 5 0 1 110 10 6 S0 0 17 109 0 108 109 109 0 11
1 112 0 0 +0 17 111 0 113 111 111 0 109 112 0 0 -0 16 112 66 0 ?109 73 0 114 0 0
 1 0 16 73 65 0 ?115 66 112 81 0 0 1 0 31 255 114 81 0 112 0 81 0 +.5 .042921850
26591675 .5 612323399573677e-31 1 612323399573677e-31 3749399456654645e-48 61232
3399573677e-31 -1 .457078149734083 0 31 81 80 0 73 114 74 0 +.5 .957078149734083
 .5 -612323399573677e-31 -1 -612323399573677e-31 3749399456654645e-48 6123233995
73677e-31 -1 .457078149734083 0 17 115 0 107 115 115 0 116 73 0 0 +0 15 107 68 0
 115 105 0 0 17 116 0 103 116 116 0 115 73 0 0 -0 15 103 72 0 116 100 113 0 15 1
13 73 0 111 100 0 0 74 4 CI16 index_map_offset0 0 1 dCCZ20 16 1 0 0 2 0 0 0 0 0
 0 0 0 0 0 0 0 0 0 0 0 0 0 0 0 80 255 5 13 117 118 9000 0 0 0 0 3 5 0 0 119 FFTF
FFFFFFFFFF3 3 1 1 2 0 84 255 6 14 Phase10 82 255 1 15 -1 0 79 255 38 118 e-X Dig
imat-FE geometry identification0 99 255 5 119 120 121 122 123 124 0 84 22 120 e-
XDigimatFE_PhaseName0 84 22 121 e-XDigimatFE_LayerName0 84 24 122 e-XDigimatFE_I
nclusionId0 84 27 123 e-XDigimatFE_SubInclusionId0 84 30 124 e-XDigimatFE_Inclus
ionPosition0 1 0 
